<?xml version="1.0" encoding="UTF-8"?>
<svg version="1.1" xmlns="http://www.w3.org/2000/svg" width="349" height="290">
<path d="M0 0 C115.17 0 230.34 0 349 0 C349 95.7 349 191.4 349 290 C233.83 290 118.66 290 0 290 C0 194.3 0 98.6 0 0 Z " fill="#FEFEFE" transform="translate(0,0)"/>
<path d="M0 0 C3.22399349 2.58201667 5.79238782 5.67673866 8.47265625 8.8046875 C15.70011173 17.19683227 25.16442346 19.94992373 35.72265625 22.1796875 C41.56030985 23.49920447 45.90246367 24.55535691 49.30078125 29.84375 C55.76801988 41.8490263 56.06499229 54.90269489 56.078125 68.25390625 C56.0814534 69.45416946 56.0847818 70.65443268 56.08821106 71.8910675 C56.09325736 74.42843241 56.0956201 76.96580391 56.09545898 79.50317383 C56.09762383 83.3101761 56.11574446 87.11687784 56.13476562 90.92382812 C56.16401182 102.38544133 56.0539725 113.8270255 55.2109375 125.26171875 C55.15834274 126.16460129 55.10574799 127.06748383 55.05155945 127.99772644 C54.67770237 132.21951583 54.50371998 134.06622911 51.47729492 137.1940918 C43.49035805 141.816109 35.46911731 141.8424436 26.46484375 141.8828125 C25.45914337 141.88851257 24.45344299 141.89421265 23.41726685 141.90008545 C21.28746582 141.90950744 19.1576504 141.91605826 17.02783203 141.91992188 C13.84379764 141.9295109 10.66044248 141.96051203 7.4765625 141.9921875 C-9.26152301 142.07856701 -27.67780116 142.04739566 -43.08984375 134.6796875 C-44.44916016 134.04933594 -44.44916016 134.04933594 -45.8359375 133.40625 C-58.79778501 126.89835985 -69.71457542 116.25418759 -75.08984375 102.6796875 C-78.66625062 91.02510286 -79.5067449 75.21278066 -74.3359375 63.9765625 C-73.92472656 63.21859375 -73.51351562 62.460625 -73.08984375 61.6796875 C-72.68894531 60.85984375 -72.28804688 60.04 -71.875 59.1953125 C-65.28025346 46.88511896 -54.08733838 36.99836812 -40.71484375 32.8671875 C-39.17770686 32.45411326 -37.63620082 32.05678159 -36.08984375 31.6796875 C-35.45433594 31.49792969 -34.81882812 31.31617188 -34.1640625 31.12890625 C-23.67253931 28.85673079 -13.6756659 31.45064832 -4.08984375 35.6796875 C-3.75984375 36.3396875 -3.42984375 36.9996875 -3.08984375 37.6796875 C-4.59611328 37.2465625 -4.59611328 37.2465625 -6.1328125 36.8046875 C-21.09083954 32.66818304 -35.78610865 31.64593701 -49.98046875 39.22265625 C-52.5018437 40.91259621 -54.79543469 42.69390691 -57.08984375 44.6796875 C-57.80785156 45.29972656 -58.52585937 45.91976562 -59.265625 46.55859375 C-67.47976137 54.21583952 -71.76432186 62.78097298 -74.08984375 73.6796875 C-74.31671875 74.6696875 -74.54359375 75.6596875 -74.77734375 76.6796875 C-76.37715272 92.03785359 -72.80803347 105.62059628 -63.3125 117.99609375 C-48.75193443 133.72642992 -28.46656539 137.71524499 -8.02005005 138.85006714 C-1.83695413 139.0577588 4.34247107 139.06588032 10.52832031 139.01586914 C13.70012152 138.9918853 16.87109734 138.99539164 20.04296875 139.00195312 C22.09766119 138.99638548 24.15235017 138.98928139 26.20703125 138.98046875 C27.60100128 138.98183586 27.60100128 138.98183586 29.02313232 138.98323059 C36.88857173 138.89891794 45.46961001 138.68248755 51.91015625 133.6796875 C52.7294955 131.24430952 52.7294955 131.24430952 52.70996094 128.42602539 C52.77926819 126.81402756 52.77926819 126.81402756 52.84997559 125.16946411 C52.86983521 124.01783783 52.88969482 122.86621155 52.91015625 121.6796875 C52.9400061 120.52717499 52.96985596 119.37466248 53.00061035 118.18722534 C53.07498377 114.37070645 53.1025673 110.55536905 53.11328125 106.73828125 C53.11610863 106.04485186 53.118936 105.35142246 53.12184906 104.63698006 C53.1367188 100.96460739 53.14602425 97.29227275 53.15039062 93.61987305 C53.15476616 90.63049046 53.16863907 87.64139797 53.19140625 84.65209961 C53.47912998 64.56533753 53.47912998 64.56533753 51.70703125 44.58984375 C51.60706848 43.87888046 51.50710571 43.16791718 51.40411377 42.43540955 C50.29888878 36.28393518 47.30168652 31.07121777 42.91015625 26.6796875 C40.92194312 26.28204487 38.92071286 25.94193401 36.91015625 25.6796875 C37.90015625 27.1646875 37.90015625 27.1646875 38.91015625 28.6796875 C39.46559702 32.96451627 39.3738665 34.97664292 36.97265625 38.6171875 C33.41187347 41.0152657 31.29919718 41.48090903 27.07421875 41.2265625 C24.62815836 40.60842449 23.52581067 39.9259122 21.78515625 38.1171875 C19.91015625 34.6796875 19.91015625 34.6796875 19.91015625 31.0546875 C20.84995305 27.88287329 21.58630438 26.00353937 23.91015625 23.6796875 C24.57015625 23.6796875 25.23015625 23.6796875 25.91015625 23.6796875 C25.91015625 23.0196875 25.91015625 22.3596875 25.91015625 21.6796875 C25.35328125 21.52113281 24.79640625 21.36257812 24.22265625 21.19921875 C15.52624905 18.54035101 10.04852038 15.36789206 4.41015625 8.1171875 C-0.1656978 2.2755044 -3.90609353 -0.55003818 -11.1875 -1.890625 C-15.94164424 -2.41410435 -20.62289589 -2.54286413 -25.40234375 -2.5703125 C-26.28857422 -2.5909375 -27.17480469 -2.6115625 -28.08789062 -2.6328125 C-39.02120842 -2.69661012 -47.10146944 0.1876782 -55.08984375 7.6796875 C-56.59203725 9.36442603 -58.01180889 11.09812395 -59.4375 12.84765625 C-66.65330862 20.84816274 -74.46225965 25.21651575 -85.08984375 26.6796875 C-87.65399601 26.79067935 -90.19724167 26.86314494 -92.76171875 26.890625 C-94.24610459 26.91870373 -95.73047943 26.94736825 -97.21484375 26.9765625 C-99.52278201 27.01763598 -101.83051743 27.05458053 -104.13867188 27.08105469 C-118.47843339 26.54811509 -118.47843339 26.54811509 -130.74609375 32.37109375 C-136.83459653 40.66853504 -138.20206149 53.39026345 -138.23510742 63.38427734 C-138.24148727 64.69939301 -138.24786713 66.01450867 -138.25444031 67.36947632 C-138.25596926 68.79319217 -138.25708307 70.21690852 -138.2578125 71.640625 C-138.26102994 73.11504142 -138.26439437 74.58945753 -138.26789856 76.06387329 C-138.27387172 79.14870951 -138.27574031 82.23351779 -138.27514648 85.31835938 C-138.27504493 89.25443531 -138.28869813 93.19033059 -138.30591869 97.12636375 C-138.31708363 100.17028615 -138.31906432 103.21416547 -138.31853676 106.25810623 C-138.31971007 107.70844775 -138.32409504 109.15879063 -138.33186913 110.60911179 C-138.80408569 123.32178505 -138.80408569 123.32178505 -133.84985352 134.60009766 C-123.50377317 142.39557863 -101.92448325 139.14109306 -89.65234375 139.3046875 C-87.26365894 139.34295056 -84.87498669 139.38200684 -82.48632812 139.421875 C-76.68761313 139.51695485 -70.88881985 139.60225403 -65.08984375 139.6796875 C-65.08984375 140.3396875 -65.08984375 140.9996875 -65.08984375 141.6796875 C-78.42351712 141.74367338 -91.75617138 141.74878968 -105.08984375 141.6796875 C-105.78470886 141.67686768 -106.47957397 141.67404785 -107.19549561 141.67114258 C-110.99527597 141.6532402 -114.79134823 141.5907188 -118.58984375 141.4921875 C-119.89997437 141.48360718 -119.89997437 141.48360718 -121.23657227 141.47485352 C-127.16602076 141.26129162 -131.5893592 139.64077818 -136.08984375 135.6796875 C-140.1988356 129.6124138 -141.20588529 123.6368102 -141.25097656 116.38330078 C-141.26058411 115.13074493 -141.27019165 113.87818909 -141.28009033 112.587677 C-141.28494284 111.22511988 -141.28922055 109.86256061 -141.29296875 108.5 C-141.29579613 107.80619106 -141.2986235 107.11238213 -141.30153656 106.39754868 C-141.3165072 102.71685154 -141.32574671 99.0361933 -141.33007812 95.35546875 C-141.33552157 91.59596439 -141.35946694 87.83682979 -141.38805008 84.07744026 C-141.40690472 81.15161188 -141.41189426 78.22586791 -141.413414 75.29998398 C-141.41639626 73.91681805 -141.42426999 72.53365195 -141.43759918 71.15054703 C-141.57380842 55.91378156 -140.25266223 39.12157645 -129.08984375 27.6796875 C-125.53811871 25.10774868 -121.3480729 25.10551042 -117.08984375 24.6796875 C-119.06984375 23.3596875 -121.04984375 22.0396875 -123.08984375 20.6796875 C-122.90234375 18.3671875 -122.90234375 18.3671875 -122.08984375 15.6796875 C-116.51713268 11.47701794 -110.7859931 12.20180502 -104.08984375 12.2421875 C-102.91421875 12.22220703 -101.73859375 12.20222656 -100.52734375 12.18164062 C-98.82578125 12.18260742 -98.82578125 12.18260742 -97.08984375 12.18359375 C-96.05859375 12.18174072 -95.02734375 12.1798877 -93.96484375 12.17797852 C-90.40933252 12.79844179 -88.70454083 14.25694716 -86.08984375 16.6796875 C-86.48787936 19.56544569 -86.87993444 20.50158263 -89.15234375 22.4296875 C-89.79171875 22.8421875 -90.43109375 23.2546875 -91.08984375 23.6796875 C-82.59750689 24.23656205 -75.37957947 22.90968082 -68.44921875 17.69140625 C-65.15661022 14.76744867 -62.06742924 11.68839463 -59.00390625 8.52734375 C-44.26366591 -6.64986024 -18.90235826 -11.94205064 0 0 Z " fill="#353535" transform="translate(212.08984375,30.3203125)"/>
<path d="M0 0 C2.55805931 0.99508005 4.35870739 2.0724716 6.6875 3.625 C5.37688409 7.85929756 3.74393741 11.69907404 1.6875 15.625 C-0.94107482 15.17438717 -3.19290392 14.67994955 -5.625 13.5625 C-9.39842193 12.24619002 -12.31378369 12.3670183 -16.3125 12.625 C-19.47581223 14.27203003 -19.47581223 14.27203003 -20 16.9375 C-19.51905252 19.99059519 -19.51905252 19.99059519 -16.125 22 C-13.50187129 23.49826391 -10.83509933 24.86370034 -8.1328125 26.21484375 C5.66388655 33.24064546 5.66388655 33.24064546 8.6875 39.625 C9.85793403 45.81047257 9.73715832 51.6370353 6.5625 57.1875 C2.67594454 62.38782069 -2.14291777 64.91404653 -8.3125 66.625 C-11.11254102 66.86294815 -13.76576734 67.00625108 -16.5625 67 C-17.31176758 66.99838867 -18.06103516 66.99677734 -18.83300781 66.99511719 C-27.27571855 66.80912226 -34.04905193 64.47088486 -40.3125 58.625 C-39.65465037 55.32819035 -38.41829427 52.78382078 -36.75 49.875 C-36.29496094 49.07578125 -35.83992188 48.2765625 -35.37109375 47.453125 C-35.02175781 46.84984375 -34.67242187 46.2465625 -34.3125 45.625 C-31.61250274 46.62785612 -29.21471511 47.68462493 -26.75 49.1875 C-21.54792906 52.25538799 -15.66100624 52.29470125 -9.8125 51.125 C-9.3175 50.96 -8.8225 50.795 -8.3125 50.625 C-7.87443628 46.30345168 -7.87443628 46.30345168 -9.89453125 42.63671875 C-13.29197925 39.81008592 -17.09914585 38.15686693 -21.09179688 36.35742188 C-26.80135402 33.6658615 -30.82679321 29.85356018 -34.3125 24.625 C-36.07449529 19.33901412 -36.02754789 14.58387643 -33.8125 9.5 C-27.15817934 -2.63575747 -12.09398852 -3.96458564 0 0 Z " fill="#170685" transform="translate(58.3125,189.375)"/>
<path d="M0 0 C0.7525708 0.00572021 1.5051416 0.01144043 2.28051758 0.01733398 C9.54348565 0.25050894 14.28886288 2.18832161 19.51953125 7.28515625 C24.46379074 12.73889447 25.04398545 17.14083848 24.96484375 24.421875 C24.42004866 30.46833317 22.10602693 34.08147307 17.875 38.3125 C9.65177564 43.95588927 2.6489334 44.58367058 -7.3125 43.5 C-14.76342965 41.39345444 -19.52122488 37.18719376 -23.3125 30.5 C-25.14485757 25.0029273 -25.4897627 18.53352755 -23.37109375 13.07421875 C-18.03627492 4.19400307 -10.21612279 -0.08970476 0 0 Z " fill="#170585" transform="translate(152.3125,212.5)"/>
<path d="M0 0 C5.85878638 3.22411872 10.41976549 7.69070859 12.875 13.97265625 C13.95515647 20.37764658 13.60837975 26.5461588 10.2734375 32.22265625 C6.18756524 37.3357031 1.14230367 40.28147907 -5.125 41.97265625 C-13.10685926 42.80684396 -20.47495528 43.0310194 -27.32421875 38.46484375 C-32.24340106 34.38864496 -35.68704872 29.82890254 -36.42578125 23.32421875 C-36.45469207 16.59763507 -36.18118507 11.20744954 -31.3203125 6.0625 C-22.68751662 -1.86989923 -11.18437083 -3.67686191 0 0 Z " fill="#170585" transform="translate(219.125,214.02734375)"/>
<path d="M0 0 C4.62 0 9.24 0 14 0 C14.33 10.23 14.66 20.46 15 31 C16.98 29.68 18.96 28.36 21 27 C27.42913723 25.83854847 33.42331312 26.65398787 39 30 C42.44612628 33.40034632 43.82799915 34.87566931 44.56762695 39.71044922 C44.56684617 41.07545135 44.53923358 42.44063644 44.48828125 43.8046875 C44.48120651 44.5286673 44.47413177 45.25264709 44.46684265 45.99856567 C44.43904109 48.29179976 44.37634075 50.58251487 44.3125 52.875 C44.28739822 54.43746452 44.26458834 55.99996764 44.24414062 57.5625 C44.18926274 61.37595805 44.10309912 65.18755326 44 69 C39.38 69 34.76 69 30 69 C29.96261719 67.08574219 29.92523438 65.17148438 29.88671875 63.19921875 C29.82107274 60.69529245 29.75462494 58.19138709 29.6875 55.6875 C29.66494141 54.42486328 29.64238281 53.16222656 29.61914062 51.86132812 C29.5659668 50.04858398 29.5659668 50.04858398 29.51171875 48.19921875 C29.48553467 47.08377686 29.45935059 45.96833496 29.43237305 44.8190918 C29.21710706 42.01245454 29.21710706 42.01245454 27.68286133 40.13989258 C24.79655794 38.1848439 22.36001643 38.5873664 19 39 C16.17557297 41.12999929 15.12765927 42.33566938 14.45410156 45.84082031 C14.4331543 46.90913086 14.41220703 47.97744141 14.390625 49.078125 C14.35839844 50.23828125 14.32617188 51.3984375 14.29296875 52.59375 C14.27169922 54.40359375 14.27169922 54.40359375 14.25 56.25 C14.22035156 57.47203125 14.19070312 58.6940625 14.16015625 59.953125 C14.08948587 62.96839445 14.04247603 65.98420161 14 69 C9.38 69 4.76 69 0 69 C0 46.23 0 23.46 0 0 Z " fill="#150384" transform="translate(76,186)"/>
<path d="M0 0 C5.28 0 10.56 0 16 0 C17.67181476 2.95552967 19.33762179 5.91416962 21 8.875 C21.47695313 9.71675781 21.95390625 10.55851563 22.4453125 11.42578125 C22.89648438 12.23144531 23.34765625 13.03710938 23.8125 13.8671875 C24.44091797 14.98262939 24.44091797 14.98262939 25.08203125 16.12060547 C26 18 26 18 26 20 C26.66 20 27.32 20 28 20 C28.391875 18.741875 28.78375 17.48375 29.1875 16.1875 C31.04207953 10.58809643 33.4997284 5.33841775 36 0 C41.61 0 47.22 0 53 0 C48.20003966 10.39991408 43.18776803 20.60290245 37.8046875 30.7109375 C33.87010209 38.10153895 30.0410551 45.54753059 26.20239258 52.98828125 C25.67025146 54.01566406 25.13811035 55.04304688 24.58984375 56.1015625 C24.11409912 57.02275879 23.63835449 57.94395508 23.14819336 58.89306641 C22 61 22 61 21 62 C18.30345146 62.07319621 15.63308542 62.09242537 12.9375 62.0625 C11.79958008 62.05573242 11.79958008 62.05573242 10.63867188 62.04882812 C8.75908129 62.0370068 6.87953101 62.01907078 5 62 C6.84988783 55.46160335 10.24838721 49.79524106 13.54296875 43.90039062 C13.98511719 43.08634766 14.42726563 42.27230469 14.8828125 41.43359375 C15.28902832 40.70197021 15.69524414 39.97034668 16.11376953 39.21655273 C17.18003261 36.5497201 17.33688331 34.85422613 17 32 C15.89507737 29.35889049 15.89507737 29.35889049 14.296875 26.7265625 C13.72839844 25.7365625 13.15992188 24.7465625 12.57421875 23.7265625 C11.67123047 22.19128906 11.67123047 22.19128906 10.75 20.625 C10.16347656 19.60921875 9.57695312 18.5934375 8.97265625 17.546875 C6.89360716 13.94941927 4.80543192 10.3577452 2.68554688 6.78417969 C0 2.21117174 0 2.21117174 0 0 Z " fill="#170585" transform="translate(268,214)"/>
<path d="M0 0 C4.62 0 9.24 0 14 0 C14 5.28 14 10.56 14 16 C16.97 16 19.94 16 23 16 C23 19.63 23 23.26 23 27 C20.03 27 17.06 27 14 27 C14.33 32.94 14.66 38.88 15 45 C17.97 44.505 17.97 44.505 21 44 C21.50833591 45.24663331 22.00631145 46.49749387 22.5 47.75 C22.7784375 48.44609375 23.056875 49.1421875 23.34375 49.859375 C24 52 24 52 24 56 C19.00542669 58.97523626 13.63466657 58.74576469 8 58 C4.02483823 56.09586717 1.61807306 53.05936022 0 49 C-0.22705078 46.43457031 -0.22705078 46.43457031 -0.1953125 43.578125 C-0.18886719 42.55332031 -0.18242187 41.52851563 -0.17578125 40.47265625 C-0.15902344 39.40917969 -0.14226562 38.34570312 -0.125 37.25 C-0.11597656 36.17105469 -0.10695312 35.09210938 -0.09765625 33.98046875 C-0.07411305 31.32008722 -0.04122799 28.66015664 0 26 C-1.98 26 -3.96 26 -6 26 C-6 22.7 -6 19.4 -6 16 C-4.02 16 -2.04 16 0 16 C0 10.72 0 5.44 0 0 Z " fill="#170685" transform="translate(243,198)"/>
<path d="M0 0 C0.495 0.99 0.495 0.99 1 2 C-0.00417969 1.71125 -1.00835937 1.4225 -2.04296875 1.125 C-17.00099579 -3.01150446 -31.6962649 -4.03375049 -45.890625 3.54296875 C-48.41199995 5.23290871 -50.70559094 7.01421941 -53 9 C-53.71800781 9.62003906 -54.43601563 10.24007812 -55.17578125 10.87890625 C-63.38991762 18.53615202 -67.67447811 27.10128548 -70 38 C-70.226875 38.99 -70.45375 39.98 -70.6875 41 C-72.28730897 56.35816609 -68.71818972 69.94090878 -59.22265625 82.31640625 C-44.66209068 98.04674242 -24.37672164 102.03555749 -3.9302063 103.17037964 C2.25288962 103.3780713 8.43231482 103.38619282 14.61816406 103.33618164 C17.78996527 103.3121978 20.96094109 103.31570414 24.1328125 103.32226562 C26.18750494 103.31669798 28.24219392 103.30959389 30.296875 103.30078125 C31.22618835 103.30169266 32.15550171 103.30260406 33.11297607 103.30354309 C45.38624704 103.24683712 45.38624704 103.24683712 56 98 C56.86076469 95.04493984 56.86076469 95.04493984 56.890625 91.5703125 C56.92529877 90.91951721 56.95997253 90.26872192 56.99569702 89.59820557 C57.10412571 87.44085187 57.17739391 85.28383283 57.25 83.125 C57.31774227 81.62182737 57.38727001 80.11873424 57.45849609 78.61572266 C57.6786108 73.74498909 57.8439262 68.87315281 58 64 C58.02815796 63.14172607 58.05631592 62.28345215 58.08532715 61.39916992 C58.45868426 49.93428392 58.75891089 38.46839356 59 27 C59.33 27 59.66 27 60 27 C60.05165905 33.71790188 60.08612456 40.43575075 60.10986328 47.15380859 C60.11978275 49.42856764 60.13332251 51.70331442 60.15087891 53.97802734 C60.2397143 65.80358658 60.17294074 77.59933558 59.3046875 89.3984375 C59.25184601 90.3123526 59.19900452 91.2262677 59.14456177 92.1678772 C58.60270337 98.37431577 58.60270337 98.37431577 55.56689453 101.52587891 C47.56391527 106.12184512 39.56449862 106.16273127 30.5546875 106.203125 C29.04613693 106.21167511 29.04613693 106.21167511 27.5071106 106.22039795 C25.37730957 106.22981994 23.24749415 106.23637076 21.11767578 106.24023438 C17.93364139 106.2498234 14.75028623 106.28082453 11.56640625 106.3125 C-5.17167926 106.39887951 -23.58795741 106.36770816 -39 99 C-39.90621094 98.57976562 -40.81242187 98.15953125 -41.74609375 97.7265625 C-54.70794126 91.21867235 -65.62473167 80.57450009 -71 67 C-74.57640687 55.34541536 -75.41690115 39.53309316 -70.24609375 28.296875 C-69.83488281 27.53890625 -69.42367187 26.7809375 -69 26 C-68.59910156 25.18015625 -68.19820312 24.3603125 -67.78515625 23.515625 C-61.19040971 11.20543146 -49.99749463 1.31868062 -36.625 -2.8125 C-35.08786311 -3.22557424 -33.54635707 -3.62290591 -32 -4 C-31.36449219 -4.18175781 -30.72898438 -4.36351562 -30.07421875 -4.55078125 C-19.58269556 -6.82295671 -9.58582215 -4.22903918 0 0 Z " fill="#2B2B2B" transform="translate(208,66)"/>
<path d="M0 0 C1.216875 0.4125 2.43375 0.825 3.6875 1.25 C7.58928705 2.55059568 11.50694409 3.78916524 15.4375 5 C17.09072266 5.51046875 17.09072266 5.51046875 18.77734375 6.03125 C20.80362656 6.64036289 22.83690461 7.22711116 24.87890625 7.78125 C30.49826785 9.32217777 35.04200883 10.58553821 38.11328125 15.94140625 C45.7128089 31.8313277 44.1537545 50.35530393 43.5625 67.5 C43.5090847 69.20961428 43.45634692 70.91924986 43.40429688 72.62890625 C43.27730417 76.75289046 43.14127344 80.87648133 43 85 C42.67 85 42.34 85 42 85 C41.98541748 83.76660889 41.97083496 82.53321777 41.95581055 81.26245117 C41.89687136 76.58966184 41.81966609 71.91730764 41.73754883 67.24487305 C41.70474099 65.24071428 41.67657949 63.23647287 41.65356445 61.23217773 C41.53233974 50.94355244 41.23693562 40.74733441 39.76953125 30.55078125 C39.67121506 29.80112595 39.57289886 29.05147064 39.47160339 28.27909851 C38.42447279 21.84924621 35.61388499 16.61388499 31 12 C29.01178687 11.60235737 27.01055661 11.26224651 25 11 C25.99 12.485 25.99 12.485 27 14 C27.55544077 18.28482877 27.46371025 20.29695542 25.0625 23.9375 C21.50171722 26.3355782 19.38904093 26.80122153 15.1640625 26.546875 C12.71800211 25.92873699 11.61565442 25.2462247 9.875 23.4375 C8 20 8 20 8 16.375 C8.9397968 13.20318579 9.67614813 11.32385187 12 9 C12.66 9 13.32 9 14 9 C14 8.34 14 7.68 14 7 C13.40832031 6.81824219 12.81664062 6.63648438 12.20703125 6.44921875 C7.81055485 5.0506659 3.80278797 3.69875275 0 1 C0 0.67 0 0.34 0 0 Z " fill="#212121" transform="translate(224,45)"/>
<path d="M0 0 C0 0.33 0 0.66 0 1 C-0.99580078 1.185625 -0.99580078 1.185625 -2.01171875 1.375 C-6.65635324 2.45987813 -10.1869273 3.35408806 -12.9375 7.4375 C-17.51403387 16.18628029 -19.11297643 26.94002239 -19.14526367 36.70458984 C-19.15164352 38.01970551 -19.15802338 39.33482117 -19.16459656 40.68978882 C-19.16612551 42.11350467 -19.16723932 43.53722102 -19.16796875 44.9609375 C-19.17118619 46.43535392 -19.17455062 47.90977003 -19.17805481 49.38418579 C-19.18402797 52.46902201 -19.18589656 55.55383029 -19.18530273 58.63867188 C-19.18520118 62.57474781 -19.19885438 66.51064309 -19.21607494 70.44667625 C-19.22723988 73.49059865 -19.22922057 76.53447797 -19.22869301 79.57841873 C-19.22986632 81.02876025 -19.23425129 82.47910313 -19.24202538 83.92942429 C-19.71424194 96.64209755 -19.71424194 96.64209755 -14.76000977 107.92041016 C-4.41392942 115.71589113 17.1653605 112.46140556 29.4375 112.625 C31.82618481 112.66326306 34.21485706 112.70231934 36.60351562 112.7421875 C42.40223062 112.83726735 48.2010239 112.92256653 54 113 C54 113.66 54 114.32 54 115 C40.66632663 115.06398588 27.33367237 115.06910218 14 115 C12.95770233 114.99577026 12.95770233 114.99577026 11.89434814 114.99145508 C8.09456778 114.9735527 4.29849552 114.9110313 0.5 114.8125 C-0.37342041 114.80677979 -1.24684082 114.80105957 -2.14672852 114.79516602 C-8.07617701 114.58160412 -12.49951545 112.96109068 -17 109 C-21.10899185 102.9327263 -22.11604154 96.9571227 -22.16113281 89.70361328 C-22.17074036 88.45105743 -22.1803479 87.19850159 -22.19024658 85.9079895 C-22.19509909 84.54543238 -22.1993768 83.18287311 -22.203125 81.8203125 C-22.20595238 81.12650356 -22.20877975 80.43269463 -22.21169281 79.71786118 C-22.22666345 76.03716404 -22.23590296 72.3565058 -22.24023438 68.67578125 C-22.24567782 64.91627689 -22.26962319 61.15714229 -22.29820633 57.39775276 C-22.31706097 54.47192438 -22.32205051 51.54618041 -22.32357025 48.62029648 C-22.32655251 47.23713055 -22.33442624 45.85396445 -22.34775543 44.47085953 C-22.48396467 29.23409406 -21.16281848 12.44188895 -10 1 C-6.55702039 -1.55446874 -4.06731667 -0.92439015 0 0 Z " fill="#323232" transform="translate(93,57)"/>
<path d="M0 0 C3.70718433 0.81785983 5.13329673 2.33819937 7.16015625 5.4765625 C8.10041499 9.64056549 7.5896965 12.59880634 5.72265625 16.4140625 C2.09717173 19.33213541 -1.2303955 19.91203622 -5.83984375 19.4765625 C-9.3770874 17.41317037 -10.54403897 16.36397685 -11.83984375 12.4765625 C-12.31466806 8.20314371 -12.29688693 6.16949894 -9.90234375 2.5390625 C-6.32643379 0.13079661 -4.23452677 -0.26863442 0 0 Z " fill="#F9F9FC" transform="translate(154.83984375,224.5234375)"/>
<path d="M0 0 C3.03978021 0.68164768 4.80055419 2.23591662 6.93359375 4.43359375 C8.15748295 6.88137214 7.94995775 8.16749916 7.68359375 10.87109375 C7.6165625 11.65355469 7.54953125 12.43601563 7.48046875 13.2421875 C6.82928985 15.85155437 6.03853287 16.79474829 3.93359375 18.43359375 C0.2611691 19.6577353 -2.20865995 19.89918382 -6.06640625 19.43359375 C-9.08344797 16.86589867 -10.62895749 15.25807516 -11.546875 11.4296875 C-11.81205854 7.65261386 -11.15198356 5.56195971 -9.06640625 2.43359375 C-5.71397384 0.19863881 -3.9372435 -0.24561254 0 0 Z " fill="#FAF9FC" transform="translate(209.06640625,224.56640625)"/>
<path d="M0 0 C0.92425781 -0.00773437 1.84851563 -0.01546875 2.80078125 -0.0234375 C7.76528585 -0.00923291 11.84818059 0.29623585 16.5 2.25 C16.5 3.24 16.5 4.23 16.5 5.25 C10.51822857 8.73030337 5.61687398 9.65819291 -1.1875 9.6875 C-2.27405884 9.70200195 -2.27405884 9.70200195 -3.38256836 9.71679688 C-8.09815803 9.64325941 -11.42238319 8.83856414 -15.5 6.25 C-16.375 4.0625 -16.375 4.0625 -16.5 2.25 C-10.96996644 -0.0726141 -5.89001881 -0.04928886 0 0 Z " fill="#FAFAFA" transform="translate(107.5,44.75)"/>
<path d="M0 0 C3 2.625 3 2.625 5 6 C5.0704409 9.59248599 4.71872721 11.20141421 2.3125 13.875 C-0.75301662 15.36633241 -2.62377244 15.48231822 -6 15 C-8.875 13.4375 -8.875 13.4375 -11 11 C-11.63734462 7.03430012 -11.61999672 4.96719488 -9.4375 1.5625 C-5.98951544 -0.64774651 -4.01860959 -0.70501923 0 0 Z " fill="#F7F7F7" transform="translate(245,55)"/>
<path d="M0 0 C10.74406671 3.02176876 17.52310406 14.09667456 22.8359375 23.1171875 C28.45140068 34.32175018 29.06224527 47.57653073 25.8125 59.6875 C25.25856352 61.14509322 24.65562582 62.5852285 24 64 C23.67128906 64.73863281 23.34257812 65.47726563 23.00390625 66.23828125 C19.75535003 72.74663437 15.00390154 77.789752 10 83 C9.35289062 83.69867188 8.70578125 84.39734375 8.0390625 85.1171875 C4.93634726 88.38249044 2.47529948 90.77946378 -2 92 C0.69887794 88.54206263 3.346636 85.64533829 6.75 82.875 C16.88326472 74.12093199 23.90586367 62.82598161 25.40234375 49.38671875 C25.81969939 34.11150248 20.31020224 19.94639877 9.84375 8.71875 C7.22882467 6.28110774 4.43539412 4.17037883 1.50390625 2.12890625 C1.00761719 1.75636719 0.51132813 1.38382812 0 1 C0 0.67 0 0.34 0 0 Z " fill="#333333" transform="translate(211,69)"/>
<path d="M0 0 C1.81336871 1.45228216 3.34389472 2.96500218 4.91015625 4.6796875 C5.56113281 5.35902344 6.21210938 6.03835937 6.8828125 6.73828125 C11.91015625 12.18540321 11.91015625 12.18540321 11.91015625 15.6796875 C8.40254161 13.23498639 6.06462223 10.61420207 3.59765625 7.1796875 C-0.50540621 1.76827324 -4.54965078 -0.66125771 -11.1953125 -1.8984375 C-15.94626744 -2.41308457 -20.62686333 -2.54288691 -25.40234375 -2.5703125 C-26.28857422 -2.5909375 -27.17480469 -2.6115625 -28.08789062 -2.6328125 C-39.02068114 -2.69660705 -47.10224136 0.18744029 -55.08984375 7.6796875 C-56.60962844 9.38004067 -58.04528401 11.12417664 -59.47265625 12.90234375 C-62.58088152 16.31838843 -66.37331732 18.96249373 -70.08984375 21.6796875 C-70.74984375 21.3496875 -71.40984375 21.0196875 -72.08984375 20.6796875 C-71.30480469 19.96683594 -70.51976562 19.25398438 -69.7109375 18.51953125 C-68.64943272 17.55242004 -67.58825709 16.58494748 -66.52734375 15.6171875 C-65.69916138 14.86272339 -65.69916138 14.86272339 -64.85424805 14.09301758 C-61.94445424 11.42844791 -59.12171333 8.72832516 -56.40234375 5.8671875 C-42.69816165 -8.00371214 -16.71340434 -10.55912274 0 0 Z " fill="#292929" transform="translate(212.08984375,30.3203125)"/>
<path d="M0 0 C0 0.33 0 0.66 0 1 C-0.99580078 1.185625 -0.99580078 1.185625 -2.01171875 1.375 C-6.65635324 2.45987813 -10.1869273 3.35408806 -12.9375 7.4375 C-15.65023342 12.62332608 -16.87382509 18.29303258 -18 24 C-18.25559692 25.28680664 -18.25559692 25.28680664 -18.51635742 26.59960938 C-19.12166474 30.85539956 -19.23138849 35.04252766 -19.31640625 39.3359375 C-19.33718735 40.21528961 -19.35796844 41.09464172 -19.37937927 42.00064087 C-19.44442963 44.79201931 -19.50355148 47.58348671 -19.5625 50.375 C-19.60572762 52.27474855 -19.64934323 54.17448831 -19.69335938 56.07421875 C-19.80006501 60.71605614 -19.90145615 65.35798246 -20 70 C-20.33 70 -20.66 70 -21 70 C-21.32398168 62.6845626 -21.62280056 55.36857271 -21.88867188 48.05078125 C-21.95396286 46.26157915 -22.02179547 44.47246063 -22.09570312 42.68359375 C-22.62382274 29.27748045 -21.00628342 14.46932966 -12.5 3.5625 C-8.15146884 -0.89474444 -6.10956944 -1.38853851 0 0 Z " fill="#4D4D4D" transform="translate(93,57)"/>
<path d="M0 0 C0.97904297 0.01353516 1.95808594 0.02707031 2.96679688 0.04101562 C5.37426625 0.07624688 7.78059564 0.12550735 10.1875 0.1875 C10.1875 0.5175 10.1875 0.8475 10.1875 1.1875 C9.13691406 1.23648438 8.08632812 1.28546875 7.00390625 1.3359375 C-0.47125491 1.72126426 -7.54846197 2.24177553 -14.8125 4.1875 C-13.84747224 6.65086034 -13.30131471 7.92483816 -10.9296875 9.19921875 C-7.04617385 10.36968541 -3.35480578 11.32679831 0.6875 11.75 C1.8425 11.894375 2.9975 12.03875 4.1875 12.1875 C4.5175 12.8475 4.8475 13.5075 5.1875 14.1875 C-1.4125 14.1875 -8.0125 14.1875 -14.8125 14.1875 C-13.4925 13.5275 -12.1725 12.8675 -10.8125 12.1875 C-12.7925 10.8675 -14.7725 9.5475 -16.8125 8.1875 C-16.56188309 5.09655817 -16.30048442 3.6185529 -13.9375 1.53125 C-9.31058822 -0.45832206 -4.97593211 -0.13032999 0 0 Z " fill="#222222" transform="translate(105.8125,42.8125)"/>
<path d="M0 0 C0.33 0 0.66 0 1 0 C3.46261138 12.33973744 3.0334646 24.36829932 2.625 36.875 C2.56661972 38.93095896 2.50932004 40.9869489 2.453125 43.04296875 C2.31452613 48.02909015 2.16135538 53.01456528 2 58 C1.67 58 1.34 58 1 58 C0.97494385 56.72995117 0.9498877 55.45990234 0.92407227 54.15136719 C0.82908314 49.38761267 0.72909535 44.62397336 0.62768555 39.86035156 C0.58467936 37.80829587 0.54298429 35.75621221 0.50268555 33.70410156 C0.25802682 18.83662683 0.25802682 18.83662683 -0.89868164 4.02050781 C-1 2 -1 2 0 0 Z " fill="#6F6F6F" transform="translate(265,72)"/>
<path d="M0 0 C-2 2 -2 2 -5.5625 3.625 C-11.90138188 6.70223902 -16.69058211 11.69058211 -21.625 16.625 C-24.60092249 19.60092249 -27.77701539 22.29715123 -31 25 C-31.66 24.67 -32.32 24.34 -33 24 C-32.21496094 23.28714844 -31.42992187 22.57429688 -30.62109375 21.83984375 C-29.55958897 20.87273254 -28.49841334 19.90525998 -27.4375 18.9375 C-26.60931763 18.18303589 -26.60931763 18.18303589 -25.7644043 17.41333008 C-22.85461049 14.74876041 -20.03186958 12.04863766 -17.3125 9.1875 C-12.42792892 4.24321533 -7.24343757 -0.52101919 0 0 Z " fill="#292929" transform="translate(173,27)"/>
<path d="M0 0 C0.33 0.66 0.66 1.32 1 2 C-1.66009822 8.9593921 -6.91185037 14.30442217 -12.0625 19.5 C-12.66392822 20.11133789 -13.26535645 20.72267578 -13.88500977 21.35253906 C-17.04905577 24.45609787 -19.63439965 26.745612 -24 28 C-21.30112206 24.54206263 -18.653364 21.64533829 -15.25 18.875 C-9.03808382 13.60786195 -4.49116983 6.73675475 0 0 Z " fill="#191919" transform="translate(233,133)"/>
<path d="M0 0 C8.49253593 2.38852573 14.22331721 10.03400426 19 17 C18.67 17.66 18.34 18.32 18 19 C17.3709375 18.20335938 16.741875 17.40671875 16.09375 16.5859375 C11.61233553 11.00658527 7.40381332 6.01164568 1.3984375 1.98828125 C0.93695313 1.66214844 0.47546875 1.33601563 0 1 C0 0.67 0 0.34 0 0 Z " fill="#232323" transform="translate(211,69)"/>
<path d="M0 0 C4.14933197 2.68486186 6.25735335 5.53288164 8.1875 10.0625 C8.82040246 13.0687867 9.10936483 15.99391896 9.1875 19.0625 C7.38109372 16.35289057 6.41394884 14.15170859 5.3125 11.125 C3.40140657 6.26232895 1.5770123 3.39000683 -3.0625 0.8125 C-3.64 0.565 -4.2175 0.3175 -4.8125 0.0625 C-2.8125 -0.9375 -2.8125 -0.9375 0 0 Z " fill="#262626" transform="translate(255.8125,54.9375)"/>
<path d="M0 0 C2.31386295 0.28064918 4.62609008 0.57481689 6.9375 0.875 C8.86916016 1.11863281 8.86916016 1.11863281 10.83984375 1.3671875 C12.40412109 1.68042969 12.40412109 1.68042969 14 2 C14.33 2.66 14.66 3.32 15 4 C8.4 4 1.8 4 -5 4 C-5 3.67 -5 3.34 -5 3 C-3.35 2.67 -1.7 2.34 0 2 C0 1.34 0 0.68 0 0 Z " fill="#020202" transform="translate(96,53)"/>
<path d="M0 0 C2 2 2 2 2.04345703 4.24658203 C1.94919434 5.15778809 1.85493164 6.06899414 1.7578125 7.0078125 C1.66113281 7.99394531 1.56445312 8.98007813 1.46484375 9.99609375 C1.35269531 11.02863281 1.24054688 12.06117187 1.125 13.125 C1.02058594 14.16527344 0.91617188 15.20554687 0.80859375 16.27734375 C0.54869472 18.85270688 0.27876681 21.42662204 0 24 C-0.33 24 -0.66 24 -1 24 C-1.02909763 20.75001888 -1.04683161 17.50007143 -1.0625 14.25 C-1.07087891 13.32960938 -1.07925781 12.40921875 -1.08789062 11.4609375 C-1.09111328 10.57148437 -1.09433594 9.68203125 -1.09765625 8.765625 C-1.10289307 7.94868164 -1.10812988 7.13173828 -1.11352539 6.29003906 C-1.00299021 4.06031865 -0.62055567 2.13866245 0 0 Z " fill="#212121" transform="translate(136,99)"/>
<path d="M0 0 C0.66 0 1.32 0 2 0 C2 0.66 2 1.32 2 2 C3.32 2.33 4.64 2.66 6 3 C4.329375 3.433125 4.329375 3.433125 2.625 3.875 C-1.00291092 4.69241329 -1.00291092 4.69241329 -3 7 C-3.71408334 8.98356483 -4.38617742 10.98315437 -5 13 C-5.33 13 -5.66 13 -6 13 C-5.25531915 5.25531915 -5.25531915 5.25531915 -2 2 C-1.34 2 -0.68 2 0 2 C0 1.34 0 0.68 0 0 Z " fill="#434343" transform="translate(238,52)"/>
<path d="M0 0 C-2 2 -2 2 -4.15478516 2.13525391 C-5.02409668 2.08288574 -5.8934082 2.03051758 -6.7890625 1.9765625 C-8.20058594 1.89921875 -8.20058594 1.89921875 -9.640625 1.8203125 C-10.62546875 1.75585938 -11.6103125 1.69140625 -12.625 1.625 C-13.61757812 1.56828125 -14.61015625 1.5115625 -15.6328125 1.453125 C-18.08924767 1.31140759 -20.54469735 1.15997723 -23 1 C-23 0.67 -23 0.34 -23 0 C-20.47958689 -0.19667089 -17.95911728 -0.38254317 -15.4375 -0.5625 C-14.73302734 -0.61857422 -14.02855469 -0.67464844 -13.30273438 -0.73242188 C-8.68561569 -1.05157754 -4.5591248 -0.80878035 0 0 Z " fill="#4E4E4E" transform="translate(123,44)"/>
<path d="M0 0 C4 4 8 8 12 12 C11.34 12.66 10.68 13.32 10 14 C8.69979989 12.61211198 7.4101807 11.21430742 6.125 9.8125 C5.40570313 9.03519531 4.68640625 8.25789063 3.9453125 7.45703125 C2.0182908 5.02310224 0.98699889 2.92463354 0 0 Z " fill="#353535" transform="translate(213,32)"/>
<path d="M0 0 C0.75410156 0.04833984 1.50820312 0.09667969 2.28515625 0.14648438 C3.45111328 0.2305957 3.45111328 0.2305957 4.640625 0.31640625 C5.82978516 0.3947168 5.82978516 0.3947168 7.04296875 0.47460938 C8.99256497 0.60379949 10.94165386 0.7406059 12.890625 0.87890625 C12.890625 1.20890625 12.890625 1.53890625 12.890625 1.87890625 C9.76660721 2.10427736 6.64151167 2.30629273 3.515625 2.50390625 C2.62617188 2.56835938 1.73671875 2.6328125 0.8203125 2.69921875 C-0.03046875 2.75078125 -0.88125 2.80234375 -1.7578125 2.85546875 C-2.93609619 2.934021 -2.93609619 2.934021 -4.13818359 3.01416016 C-6.109375 2.87890625 -6.109375 2.87890625 -8.109375 0.87890625 C-5.27553392 0.05375841 -2.94002249 -0.20045608 0 0 Z " fill="#585858" transform="translate(179.109375,25.12109375)"/>
<path d="M0 0 C0.33 0.66 0.66 1.32 1 2 C-0.109375 4.3125 -0.109375 4.3125 -1.75 7 C-2.28109375 7.886875 -2.8121875 8.77375 -3.359375 9.6875 C-5 12 -5 12 -8 14 C-8 9.96618977 -6.40426438 8.50566363 -4 5.3125 C-3.2575 4.31863281 -2.515 3.32476562 -1.75 2.30078125 C-1.1725 1.54152344 -0.595 0.78226563 0 0 Z " fill="#252525" transform="translate(233,133)"/>
<path d="M0 0 C4.43458973 1.3937282 6.87378374 3.60582235 10 7 C5.56541027 5.6062718 3.12621626 3.39417765 0 0 Z " fill="#363636" transform="translate(211,69)"/>
<path d="M0 0 C3.83082186 1.59617578 5.66656647 2.49984971 8 6 C5 6 5 6 3.5625 4.625 C3.046875 4.08875 2.53125 3.5525 2 3 C-0.09989652 1.82425289 -0.09989652 1.82425289 -2 1 C-1.34 0.67 -0.68 0.34 0 0 Z " fill="#414141" transform="translate(253,54)"/>
</svg>
